<svg width="1200" height="720" viewBox="0 0 1200 720" fill="none" xmlns="http://www.w3.org/2000/svg">
  <rect width="1200" height="720" rx="44" fill="#F4F4F1"/>
  <circle cx="220" cy="120" r="150" fill="#FFFFFF" fill-opacity="0.8"/>
  <circle cx="980" cy="620" r="220" fill="#E7E7E2" fill-opacity="0.78"/>
  <text x="80" y="105" fill="#18181B" font-family="Inter, -apple-system, BlinkMacSystemFont, 'Segoe UI', sans-serif" font-size="42" font-weight="800">ECHO iPhone</text>
  <text x="82" y="144" fill="#71717A" font-family="Inter, -apple-system, BlinkMacSystemFont, 'Segoe UI', sans-serif" font-size="18" font-weight="600">灰白音乐播放器风格 · EchoLink 控制 · 手机串流 · 歌词模式</text>
  <g filter="url(#shadow)">
    <rect x="94" y="190" width="288" height="462" rx="44" fill="#111113"/>
    <rect x="108" y="204" width="260" height="434" rx="34" fill="#F7F7F4"/>
    <rect x="148" y="244" width="180" height="180" rx="26" fill="#E7E7E4"/>
    <path d="M203 352V294L279 284V339" stroke="#18181B" stroke-width="8" stroke-linecap="round" stroke-linejoin="round"/>
    <circle cx="203" cy="354" r="14" fill="#18181B"/>
    <circle cx="279" cy="341" r="14" fill="#18181B"/>
    <text x="146" y="464" fill="#18181B" font-family="Inter, -apple-system, BlinkMacSystemFont, 'Segoe UI', sans-serif" font-size="22" font-weight="800">Moonlit Drive</text>
    <text x="146" y="492" fill="#71717A" font-family="Inter, -apple-system, BlinkMacSystemFont, 'Segoe UI', sans-serif" font-size="12" font-weight="700">WASAPI · Local · 可串流</text>
    <rect x="146" y="518" width="180" height="6" rx="3" fill="#DADAD6"/>
    <rect x="146" y="518" width="92" height="6" rx="3" fill="#18181B"/>
    <circle cx="238" cy="568" r="34" fill="#18181B"/>
    <path d="M231 552L255 568L231 584V552Z" fill="white"/>
    <circle cx="177" cy="568" r="24" fill="white" stroke="#EFEFEB"/>
    <text x="168" y="577" fill="#18181B" font-family="Inter" font-size="34">‹</text>
    <circle cx="299" cy="568" r="24" fill="white" stroke="#EFEFEB"/>
    <text x="291" y="577" fill="#18181B" font-family="Inter" font-size="34">›</text>
  </g>
  <g filter="url(#shadow)">
    <rect x="456" y="142" width="322" height="510" rx="48" fill="#111113"/>
    <rect x="471" y="157" width="292" height="480" rx="36" fill="#F7F7F4"/>
    <rect x="499" y="188" width="108" height="108" rx="22" fill="#E7E7E4"/>
    <text x="623" y="208" fill="#18181B" font-family="Inter, -apple-system, BlinkMacSystemFont, 'Segoe UI', sans-serif" font-size="22" font-weight="800">Late Summer</text>
    <text x="623" y="236" fill="#71717A" font-family="Inter, -apple-system, BlinkMacSystemFont, 'Segoe UI', sans-serif" font-size="12" font-weight="800">FLAC · 44.1kHz</text>
    <rect x="500" y="306" width="236" height="184" rx="24" fill="#18181B"/>
    <text x="524" y="350" fill="#A1A1AA" font-family="Inter, -apple-system, BlinkMacSystemFont, 'Segoe UI', sans-serif" font-size="15" font-weight="700">00:48  把夜色调成柔和</text>
    <text x="524" y="394" fill="#FFFFFF" font-family="Inter, -apple-system, BlinkMacSystemFont, 'Segoe UI', sans-serif" font-size="22" font-weight="900">当前歌词轻轻发光</text>
    <text x="524" y="438" fill="#A1A1AA" font-family="Inter, -apple-system, BlinkMacSystemFont, 'Segoe UI', sans-serif" font-size="15" font-weight="700">00:56  下一句慢慢靠近</text>
    <rect x="500" y="512" width="150" height="6" rx="3" fill="#DADAD6"/>
    <rect x="500" y="512" width="78" height="6" rx="3" fill="#18181B"/>
    <rect x="662" y="494" width="70" height="36" rx="18" fill="white" stroke="#EFEFEB"/>
    <text x="676" y="517" fill="#18181B" font-family="Inter" font-size="12" font-weight="900">VOL 62%</text>
    <circle cx="617" cy="574" r="37" fill="#18181B"/>
    <text x="606" y="587" fill="white" font-family="Inter" font-size="34" font-weight="900">Ⅱ</text>
    <circle cx="544" cy="574" r="27" fill="white" stroke="#EFEFEB"/>
    <text x="534" y="584" fill="#18181B" font-family="Inter" font-size="36">‹</text>
    <circle cx="690" cy="574" r="27" fill="white" stroke="#EFEFEB"/>
    <text x="681" y="584" fill="#18181B" font-family="Inter" font-size="36">›</text>
  </g>
  <g filter="url(#shadow)">
    <rect x="852" y="190" width="254" height="392" rx="42" fill="#111113"/>
    <rect x="866" y="204" width="226" height="364" rx="32" fill="#F7F7F4"/>
    <text x="894" y="262" fill="#18181B" font-family="Inter, -apple-system, BlinkMacSystemFont, 'Segoe UI', sans-serif" font-size="30" font-weight="900">曲库</text>
    <rect x="894" y="292" width="166" height="42" rx="21" fill="white" stroke="#EFEFEB"/>
    <text x="914" y="319" fill="#71717A" font-family="Inter" font-size="13" font-weight="700">搜索歌曲、艺术家</text>
    <g>
      <rect x="894" y="360" width="46" height="46" rx="13" fill="#E7E7E4"/>
      <text x="954" y="379" fill="#18181B" font-family="Inter" font-size="15" font-weight="800">City Lights</text>
      <text x="954" y="401" fill="#71717A" font-family="Inter" font-size="11" font-weight="700">Local · 可串流 · 3:42</text>
    </g>
    <g>
      <rect x="894" y="428" width="46" height="46" rx="13" fill="#E7E7E4"/>
      <text x="954" y="447" fill="#18181B" font-family="Inter" font-size="15" font-weight="800">Soft Echo</text>
      <text x="954" y="469" fill="#71717A" font-family="Inter" font-size="11" font-weight="700">Local · 可串流 · 4:10</text>
    </g>
  </g>
  <defs>
    <filter id="shadow" x="50" y="100" width="1100" height="590" filterUnits="userSpaceOnUse" color-interpolation-filters="sRGB">
      <feDropShadow dx="0" dy="26" stdDeviation="24" flood-color="#18181B" flood-opacity="0.18"/>
    </filter>
  </defs>
</svg>
